<?xml version="1.0" encoding="utf-8"?>
<!-- Generator: Adobe Illustrator 28.0.0, SVG Export Plug-In . SVG Version: 6.00 Build 0)  -->
<svg version="1.1" id="Flat" xmlns="http://www.w3.org/2000/svg" xmlns:xlink="http://www.w3.org/1999/xlink" x="0px" y="0px"
	 viewBox="0 0 800 800" style="enable-background:new 0 0 800 800;" xml:space="preserve">
<style type="text/css">
	.st0{fill:#DEDEDE;}
</style>
<path class="st0" d="M778.9,181.2c-20-34.6-73-66.9-210.9-29.7c-137.1-92.8-323.6-56.9-416.4,80.3C117.9,281.4,100,340,100,400
	c0,7.2,0.3,14.3,0.8,21.3C-0.3,522.2,1.1,584.1,21.1,618.8c20.1,34.8,60.5,46.1,104.2,46.1c27.7-0.5,55.2-3.9,82.2-10.3
	c8-1.8,16.2-3.9,24.6-6.1c137.1,92.8,323.6,56.9,416.4-80.2C682.1,518.6,700,460,700,400c0-7.2-0.3-14.3-0.8-21.3
	c6.1-6.1,12-12.1,17.5-18.1C763.2,310.1,811.7,238,778.9,181.2z M392,150c115.1,0.2,214.8,80.8,240,194.1
	c-52.1,47.1-118.4,94.8-192.2,137.8c-73.7,43-147.7,77.1-214.2,99.1c-100-92.7-106.7-249.7-14.9-350.6
	C257.3,179.1,323.1,150,392,150z M86.1,581.2c-3.2-5.5,2-30.1,35-70.9c10.9,27.4,25.7,53,44.1,76C108.6,595.4,88.2,584.9,86.1,581.2
	z M383.3,662c-30.3,0-60.4-5.2-89.3-15.3C361.3,616,426.7,580.4,489.7,540c63.1-40.1,123.7-84.9,181.3-134
	C641.2,555.4,521.6,661.8,383.3,662z M679,289.6c-10.9-27.4-25.7-53-44-76c51.8-8.2,75.8-0.4,79,5.1
	C716,222.4,714.9,245.3,679,289.6z"/>
</svg>
