<svg width="54" height="56" viewBox="0 0 54 56" fill="none" xmlns="http://www.w3.org/2000/svg">
<path d="M5.90932 45.8862L5.90895 45.8864C5.18156 46.3107 4.25417 46.052 3.85086 45.3095L3.85021 45.3083L0.684018 39.5163C0.683938 39.5161 0.683859 39.516 0.68378 39.5158C0.68377 39.5158 0.683761 39.5158 0.683751 39.5158C0.296634 38.8051 0.540484 37.9136 1.23509 37.5014C1.23522 37.5013 1.23534 37.5012 1.23546 37.5012L13.8725 30.0481C13.8726 30.0481 13.8727 30.048 13.8728 30.048C15.5189 29.0783 15.5129 26.6802 13.8518 25.7239L13.8514 25.7236L1.26243 18.4899L1.26129 18.4892C0.55652 18.0867 0.302659 17.1883 0.694789 16.4676C0.69489 16.4674 0.694991 16.4672 0.695092 16.4671L3.85028 10.6916L3.8503 10.6915C4.25331 9.95367 5.18697 9.69449 5.90932 10.1138C5.90945 10.1139 5.90958 10.114 5.90971 10.1141L18.4099 17.3913C18.4101 17.3914 18.4103 17.3915 18.4104 17.3916C20.074 18.3627 22.1584 17.1556 22.1584 15.2322V1.99686C22.1584 1.16707 22.8293 0.5 23.6505 0.5H30.3292C31.1541 0.5 31.8212 1.17077 31.8212 1.99686V15.2487C31.8212 17.1712 33.8988 18.3791 35.5629 17.4141L48.1842 10.1201L48.1849 10.1197C48.9153 9.69609 49.8475 9.96179 50.2475 10.7141L50.2477 10.7146L53.3204 16.4787C53.7001 17.1945 53.4473 18.0815 52.7491 18.485L52.7487 18.4852L40.2478 25.7243C38.594 26.6805 38.5859 29.079 40.2344 30.0432C40.2345 30.0433 40.2346 30.0434 40.2347 30.0434L52.7408 37.3813L52.7417 37.3819C53.4402 37.7896 53.6872 38.6846 53.2967 39.3933L53.296 39.3946L50.1296 45.1816L50.1294 45.1819C49.7263 45.9199 48.7924 46.1791 48.07 45.7594L35.5698 38.4822C33.9061 37.5105 31.8212 38.7176 31.8212 40.6413V54.0031C31.8212 54.8329 31.1504 55.5 30.3292 55.5H23.6505C22.8256 55.5 22.1584 54.8292 22.1584 54.0031V40.7678C22.1584 38.8442 20.0736 37.6371 18.4099 38.6087L5.90932 45.8862Z" fill="black" stroke="black"/>
</svg>
