<?xml version="1.0" encoding="utf-8"?>
<!-- Generator: Adobe Illustrator 28.0.0, SVG Export Plug-In . SVG Version: 6.00 Build 0)  -->
<svg version="1.1" id="Capa_1" xmlns="http://www.w3.org/2000/svg" xmlns:xlink="http://www.w3.org/1999/xlink" x="0px" y="0px"
	 viewBox="0 0 54 56" style="enable-background:new 0 0 54 56;" xml:space="preserve">
<style type="text/css">
	.st0{fill:none;stroke:#F0F0F0;stroke-width:0.5;}
</style>
<path class="st0" d="M5.9,45.9L5.9,45.9c-0.7,0.4-1.7,0.2-2.1-0.6l0,0l-3.2-5.8l0,0l0,0c-0.4-0.7-0.1-1.6,0.6-2l0,0L13.9,30l0,0
	c1.6-1,1.6-3.4,0-4.3l0,0L1.3,18.5l0,0c-0.7-0.4-1-1.3-0.6-2l0,0l3.2-5.8l0,0c0.4-0.7,1.3-1,2.1-0.6l0,0l12.5,7.3l0,0
	c1.7,1,3.7-0.2,3.7-2.2V2c0-0.8,0.7-1.5,1.5-1.5h6.7c0.8,0,1.5,0.7,1.5,1.5v13.3c0,1.9,2.1,3.1,3.7,2.2l12.6-7.3l0,0
	c0.7-0.4,1.7-0.2,2.1,0.6l0,0l3.1,5.8c0.4,0.7,0.1,1.6-0.6,2l0,0l-12.5,7.2c-1.7,1-1.7,3.4,0,4.3l0,0l12.5,7.3l0,0
	c0.7,0.4,0.9,1.3,0.6,2l0,0l-3.2,5.8l0,0c-0.4,0.7-1.3,1-2.1,0.6l-12.5-7.3c-1.7-1-3.7,0.2-3.7,2.2V54c0,0.8-0.7,1.5-1.5,1.5h-6.7
	c-0.8,0-1.5-0.7-1.5-1.5V40.8c0-1.9-2.1-3.1-3.7-2.2L5.9,45.9z"/>
</svg>
