<?xml version="1.0" encoding="utf-8"?>
<!-- Generator: Adobe Illustrator 28.0.0, SVG Export Plug-In . SVG Version: 6.00 Build 0)  -->
<svg version="1.1" id="Capa_1" xmlns="http://www.w3.org/2000/svg" xmlns:xlink="http://www.w3.org/1999/xlink" x="0px" y="0px"
	 viewBox="0 0 800 800" style="enable-background:new 0 0 800 800;" xml:space="preserve">
<style type="text/css">
	.st0{fill:none;stroke:#E7E7E7;stroke-width:30;stroke-linecap:round;stroke-linejoin:round;stroke-miterlimit:133.3333;}
</style>
<path class="st0" d="M400,100l67.9,172.1c6.3,15.9,9.4,23.8,14.2,30.5c4.2,5.9,9.4,11.1,15.4,15.4c6.7,4.8,14.6,7.9,30.5,14.2
	L700,400l-172.1,67.9c-15.9,6.3-23.8,9.4-30.5,14.2c-5.9,4.2-11.1,9.4-15.4,15.4c-4.8,6.7-7.9,14.6-14.2,30.5L400,700l-67.9-172.1
	c-6.3-15.9-9.4-23.8-14.2-30.5c-4.3-5.9-9.4-11.1-15.4-15.4c-6.7-4.8-14.6-7.9-30.5-14.2L100,400l172.1-67.9
	c15.9-6.3,23.8-9.4,30.5-14.2c5.9-4.3,11.1-9.4,15.4-15.4c4.8-6.7,7.9-14.6,14.2-30.5L400,100z"/>
</svg>
