<?xml version="1.0" encoding="UTF-8"?>
<svg id="Capa_2" data-name="Capa 2" xmlns="http://www.w3.org/2000/svg" viewBox="0 0 134.27 132.64">
  <defs>
    <style>
      .cls-1, .cls-2, .cls-3, .cls-4, .cls-5, .cls-6, .cls-7, .cls-8, .cls-9, .cls-10, .cls-11, .cls-12, .cls-13 {
        stroke: #1f140f;
        stroke-miterlimit: 10;
      }

      .cls-1, .cls-14 {
        fill: #5c5b5f;
      }

      .cls-2, .cls-15, .cls-9 {
        fill: #1f140f;
      }

      .cls-3 {
        stroke-width: 3px;
      }

      .cls-3, .cls-13 {
        fill: none;
      }

      .cls-4, .cls-16, .cls-10 {
        fill: #434041;
      }

      .cls-4, .cls-8, .cls-9 {
        stroke-width: 2px;
      }

      .cls-16, .cls-15, .cls-17, .cls-18, .cls-14 {
        stroke-width: 0px;
      }

      .cls-5, .cls-18 {
        fill: #c3c5ca;
      }

      .cls-6 {
        fill: #737277;
      }

      .cls-7, .cls-8 {
        fill: #fff;
      }

      .cls-17 {
        fill: #3e3a3a;
      }

      .cls-11 {
        fill: #f7f8f8;
      }

      .cls-12 {
        fill: #89878c;
      }
    </style>
  </defs>
  <g id="Capa_7" data-name="Capa 7">
    <path class="cls-10" d="m17.08,36.84s-7.79,20.71,10.12,22.38-1.71-29.46-1.71-29.46l-8.42,7.08Z"/>
  </g>
  <g id="Silla">
    <path class="cls-12" d="m133.76,131.02s-.16-43.37,0-57.66c.16-14.29-19.65-15.33-19.65-15.33h-49.61v72.99h69.26Z"/>
    <g id="Capa_8" data-name="Capa 8">
      <path class="cls-14" d="m131.62,65.46s-3.41-.02-3.41,3.31c0,1.58,1.03,14.31,1.67,28.69.7,15.92-.1,33.18-.1,33.18l4.39-.21-.12-59.7s-1.72-5.2-2.42-5.27Z"/>
    </g>
    <path class="cls-14" d="m103.29,58.19c3.41,5.55.69,13.88-2.42,19.25-3.84,6.64-12.2,9.94-20.22,7.67,0,0,11.87-.65,21.89,5.23,7.51,4.41,20.06,9.12,20.58,16.55,1.22,17.33.88,24.76.88,24.76l-51.85-.78V58.42s31.13-.23,31.13-.23Z"/>
    <path class="cls-13" d="m133.76,131.02s-.16-43.37,0-57.66c.16-14.29-19.65-15.33-19.65-15.33h-49.61v72.99h69.26Z"/>
    <path class="cls-13" d="m92.33,66.18h23.66s8.78.59,10,12.71,0,51.98,0,51.98"/>
    <path class="cls-13" d="m115.63,66.18s.81-7.41,7.5-6.21"/>
    <polyline class="cls-13" points="133.72 99.13 126.52 100.55 106.14 100.3"/>
    <polyline class="cls-13" points="133.74 116.13 126.32 117.02 116.79 117.02"/>
  </g>
  <g id="Capa_6" data-name="Capa 6">
    <path class="cls-5" d="m4.63,131.38s2.58-25.33,43.92-26.49,57.6,3.25,57.6,3.25c0,0,14.15,5.38,14.32,22.73-5.68,0-115.83.51-115.83.51Z"/>
    <path class="cls-1" d="m90.89,108.6s16.01-2.65,17-2.55,3.75.51,3.57,2.69-.96,2.24-.96,2.24h-3.22s-11.44,10.01-9.94,19.81c-12.56.51-15.11.51-15.11.51,0,0,.94-10.16,1.83-10.88.89-.72,6.83-11.83,6.83-11.83Z"/>
    <path class="cls-16" d="m99.63,111.6c.62-.08,10.4-1.33,10.98-1.52,1.03-.34-.14-3.16-.53-3.18-2.9-.19-10.82.75-13.7,1.13-1.47.19-2.97.42-4.4.8-.83.22-3.94,5.54-3.94,5.54,0,0,10.51-2.63,11.58-2.78Z"/>
    <path class="cls-13" d="m90.88,108.66s16.01-2.65,17-2.55,3.75.51,3.57,2.69-.96,2.24-.96,2.24h-3.22s-11.44,10.01-9.94,19.81c-12.56.51-15.11.51-15.11.51,0,0,.94-10.16,1.83-10.88.89-.72,6.83-11.83,6.83-11.83Z"/>
    <path class="cls-13" d="m108.58,105.85s-6.67,5.49-11.28,12.72-3.72,12.03-3.72,12.03"/>
    <path class="cls-6" d="m20.89,110.63s-7.02,13.05-4.57,20.23c7.5-.37,12.72,0,12.72,0,0,0,.06-13.87,1.5-15.59-.83-3.33-1.62-8.41-1.62-8.41,0,0-4.56-.98-8.03,3.77Z"/>
    <path class="cls-16" d="m30.04,114.99c-.09,1.72-1.99,13.98-1.44,15.61-1.78-.23-2.44-.24-4.22-.13-.09,0-.74-7.16.22-12.24.75-3.94,2.95-5.88,4.08-7.04.22.66,1.4,3.12,1.36,3.81Z"/>
    <path class="cls-13" d="m20.89,110.63s-7.02,13.05-4.57,20.23c7.5-.37,12.72,0,12.72,0,0,0,.06-13.87,1.5-15.59-.83-3.33-1.62-8.41-1.62-8.41,0,0-4.56-.98-8.03,3.77Z"/>
    <path class="cls-13" d="m24.47,131.28s-1.16-16.2,4.83-20.22"/>
    <path class="cls-7" d="m68.96,130.86l21.33-22.73,17.58-2.02s.17-7.63-7.25-7.6c0,0-4.42-10.47-30.75-9.22-26.33,1.25-37,9.22-37,9.22,0,0-13.42,8.7,9.08,33.61l27-1.27Z"/>
    <path class="cls-18" d="m36.82,103.16s15.58-20.06,52.78-5.89c-4.36,4.33-8.61,6.08-12.78,10.56-6.31,6.77-10.29,14.46-10.29,14.46l-20.92,3.49-8.8-22.62Z"/>
    <path class="cls-12" d="m38.63,106.88s4.5-11,25.88-9.92c21.38,1.08,19.21,4.42,19.21,4.42l6.33-3.92s-29.87,21.67-29.6,33.08l-12.23.67s-12.67-26.08-11.42-27.42c1.25,3.67,1.83,3.08,1.83,3.08Z"/>
    <path class="cls-15" d="m39.88,112.44c1.93-1.86,13.24-6.82,18.08-7.34,8.73-.93,20.03.92,21.04.57,1.57-.54,5.25-4.22,5.14-4.49-.19-.47-2.94-4.63-26.78-3.59-15.32,1.42-19.99,9.32-19.87,9.9.25,1.22,1.87,3.82,2.39,4.95Z"/>
    <path class="cls-7" d="m43.57,119.8s-.95-21.92,37.64-15.92c-9.25,8.08-20.17,27.33-20.17,27.33h-12.83l-4.64-11.42Z"/>
    <ellipse class="cls-7" cx="58.32" cy="114.38" rx="12.5" ry="6.89"/>
    <polygon class="cls-11" points="93.26 119.83 85.2 118.82 83.88 120.73 82.21 131.38 93.26 130.86 93.26 126.66 94.82 122.83 93.26 119.83"/>
    <polygon class="cls-11" points="24.93 129.88 24.49 123.88 24.81 121.17 24.49 120.24 17.14 119.74 15.54 126.27 15.8 130.16 24.93 129.88"/>
    <path class="cls-11" d="m90.93,123.38s-1.22,3.17-.89,7.17"/>
    <path class="cls-11" d="m21.71,122.94s-.83,5.79,0,6.78"/>
    <path class="cls-7" d="m90.63,103.84s4.96-4.98,10-5.32"/>
    <path class="cls-7" d="m46.86,93.55s.99,3.15,1.64,7.47c.52,3.46.82,7.68.2,11.64,1.92,4.36,18.07,10,29.07-5.56-2.33-6.56-4.36-15.46-1-25.68s-29.91,12.13-29.91,12.13Z"/>
  </g>
  <g id="Cabeza">
    <polygon class="cls-2" points="66.1 96.33 49.26 102.99 46.73 92.64 66.1 96.33"/>
    <path class="cls-7" d="m27.91,30.6s-18.46,69,22.27,68.44c18.35-.67,25.96-5,31.89-24.89,0,0,9.62-.18,11.19-9.2s-1.34-10.91-9.74-8.58c4.92-11.56,6.83-39.22-19.58-43-26.41-3.78-36.03,17.22-36.03,17.22Z"/>
    <circle class="cls-8" cx="34.21" cy="59.84" r="11.71"/>
    <path class="cls-8" d="m75.36,59.81c0,6.47-5.24,11.71-11.71,11.71s-11.71-5.24-11.71-11.71,5.24-11.71,11.71-11.71c5.26,0,9.7,3.46,11.18,8.23.04.13.08.25.11.38.27.98.41,2.02.41,3.09Z"/>
    <circle class="cls-9" cx="36.5" cy="58.75" r="3.46"/>
    <circle class="cls-9" cx="65.83" cy="58.75" r="3.46"/>
    <path class="cls-13" d="m46.19,61.04c1.66.26-7.53,13.98,2,12.95"/>
    <path class="cls-13" d="m43.06,79.97s5.58,4.83,10.25,0"/>
    <path class="cls-8" d="m45.1,55.98s2.95-4.48,7.32,0"/>
    <g>
      <path class="cls-1" d="m91.16,55.76c1.51,1.02,1.96,9.45.49,11.63-2.96,4.37-8.17,7.09-9.95,6.54-2.16,11.12,4.38,7.22,10.05,1,2.94-3.22,5.65-7.05,6.79-9.74,2.55-5.99,2.3-12.86,1.2-19.31-.46-2.7-1.37-5.78-3.83-6.79,4.25,2.39,9.02,4.85,13.7,3.62-1.71-.06-3.17-1.41-3.97-2.99s-1.06-3.37-1.44-5.11c-.91-4.26-2.56-8.46-5.44-11.65s-7.1-5.25-11.27-4.73c1.98-5.09.51-11.41-3.5-15,.37,3.34.36,6.73-.03,10.07-3.48-4.24-8.38-6.92-13.27-9.23-3.93-1.86-8.06-3.57-12.37-3.57-5.24,0-10.14,2.51-15.22,3.86-6.15,1.63-12.91,1.65-18.23,5.25-4.05,2.74-6.72,7.28-8.21,12.06s-1.94,9.82-2.36,14.82c2.48-2.5,4.71-5.27,6.63-8.24-4.28,7.91-11.59,14-19.96,16.61,5.54,5.71,15.17,8.3,21.83,4.18,5.93-3.67,17.22-15.77,17.22-15.77,0,0-8.59,10.5-13.28,14.21,7.51,2.77,20.94-7.5,20.94-7.5,0,0-3.14,6.65-6.06,8.76,9.83-.92,18.88-8.05,22.38-17.63-.3-2.17,2.84,2.27-3.5,8.91s16.46-8.16,18.88-10.42c-1.06,3.44-7.14,68.32,3.3,33.68.24-.79,1.32-5.55,1.71-7.12.03-.11.05-.21.08-.29,0,0,5.07-1.22,6.68-.13Z"/>
      <path class="cls-17" d="m61.71,38.71c-.11.06-1.94,2.75-2.17,2.86s5.58-2.31,5.58-2.31l14.5-9.89s-18.25,11.72-17.92,9.33"/>
      <path class="cls-17" d="m21.48,42.02c6.74-2.98,11.93-4.89,17.92-9.19-2.55,5.86-5.93,8.53-11.23,12.11,3.74-.19,7.51-.5,11.1-1.58s8.17-3.37,10.51-6.3c-2.06,3.99-5.26,8.58-7.62,11.27,7.61-3.25,10.73-4.95,21.2-17.2.57,2.15-5.33,15.38-22.24,18.21,2.15-2.22,4.22-4.41,5.21-7.33-13.22,7.33-13.3,4.95-20.37,5.24l1.67-1.03c-4.03,1.87-6.67,4.12-11.06,4.82-1.9.3-5.65-.92-7.52-1.34-1.62-.36-3.07-1.24-4.48-2.1-1.17-.71-2.54-1.35-3.6-2.22.44-.19,1.1.03,1.57.08.69.07,1.38.12,2.07.15,1.4.05,2.81,0,4.21-.14,2.82-.28,5.6-.9,8.29-1.78,1.49-.49,2.92-1.1,4.38-1.69Z"/>
      <path class="cls-13" d="m91.12,55.9c1.51,1.02,1.96,9.45.49,11.63-2.96,4.37-8.17,7.09-9.95,6.54-2.16,11.12,4.38,7.22,10.05,1,2.94-3.22,5.65-7.05,6.79-9.74,2.55-5.99,2.3-12.86,1.2-19.31-.46-2.7-1.37-5.78-3.83-6.79,4.25,2.39,9.02,4.85,13.7,3.62-1.71-.06-3.17-1.41-3.97-2.99s-1.06-3.37-1.44-5.11c-.91-4.26-2.56-8.46-5.44-11.65s-7.1-5.25-11.27-4.73c1.98-5.09.51-11.41-3.5-15,.37,3.34.36,6.73-.03,10.07-3.48-4.24-8.38-6.92-13.27-9.23-3.93-1.86-8.06-3.57-12.37-3.57-5.24,0-10.14,2.51-15.22,3.86-6.15,1.63-12.91,1.65-18.23,5.25-4.05,2.74-6.72,7.28-8.21,12.06s-1.94,9.82-2.36,14.82c2.48-2.5,4.71-5.27,6.63-8.24-4.28,7.91-11.59,14-19.96,16.61,5.54,5.71,15.17,8.3,21.83,4.18,5.93-3.67,17.22-15.77,17.22-15.77,0,0-8.59,10.5-13.28,14.21,7.51,2.77,20.94-7.5,20.94-7.5,0,0-3.14,6.65-6.06,8.76,9.83-.92,18.88-8.05,22.38-17.63-.3-2.17,2.84,2.27-3.5,8.91s16.46-8.16,18.88-10.42c-1.06,3.44-7.14,68.32,3.3,33.68.24-.79,1.32-5.55,1.71-7.12.03-.11.05-.21.08-.29,0,0,5.07-1.22,6.68-.13Z"/>
    </g>
    <line class="cls-4" x1="75.36" y1="56.93" x2="84.61" y2="56.09"/>
    <path class="cls-7" d="m85.33,60.67s4.83-3.92,4.71,2.58"/>
    <path class="cls-7" d="m87.44,61.58c.08.04-4.46,8.75,0,5.04"/>
    <path class="cls-3" d="m59.23,46.81c-2.64,0,12.07,0,8.41,0"/>
    <path class="cls-3" d="m27.14,46.81c-1.27,0,13,0,14.7,0"/>
  </g>
</svg>