<?xml version="1.0" encoding="utf-8"?>
<!-- Generator: Adobe Illustrator 28.0.0, SVG Export Plug-In . SVG Version: 6.00 Build 0)  -->
<svg version="1.1" id="Capa_2_00000151536467250330370860000006946879413087987632_"
	 xmlns="http://www.w3.org/2000/svg" xmlns:xlink="http://www.w3.org/1999/xlink" x="0px" y="0px" viewBox="0 0 134.3 132.6"
	 style="enable-background:new 0 0 134.3 132.6;" xml:space="preserve">
<style type="text/css">
	.st0{fill:#434041;stroke:#1F140F;stroke-miterlimit:10;}
	.st1{fill:#89878C;stroke:#1F140F;stroke-miterlimit:10;}
	.st2{fill:#5C5B5F;}
	.st3{fill:none;stroke:#1F140F;stroke-miterlimit:10;}
	.st4{fill:#C3C5CA;stroke:#1F140F;stroke-miterlimit:10;}
	.st5{fill:#5C5B5F;stroke:#1F140F;stroke-miterlimit:10;}
	.st6{fill:#434041;}
	.st7{fill:#737277;stroke:#1F140F;stroke-miterlimit:10;}
	.st8{fill:#FFFFFF;stroke:#1F140F;stroke-miterlimit:10;}
	.st9{fill:#C3C5CA;}
	.st10{fill:#1F140F;}
	.st11{fill:#F7F8F8;stroke:#1F140F;stroke-miterlimit:10;}
	.st12{fill:#1F140F;stroke:#1F140F;stroke-miterlimit:10;}
	.st13{fill:#FFFFFF;stroke:#1F140F;stroke-width:2;stroke-miterlimit:10;}
	.st14{fill:#1F140F;stroke:#1F140F;stroke-width:2;stroke-miterlimit:10;}
	.st15{fill:#3E3A3A;}
	.st16{fill:none;stroke:#1F140F;stroke-width:2;stroke-miterlimit:10;}
	.st17{fill:none;stroke:#1F140F;stroke-width:3;stroke-miterlimit:10;}
</style>
<g id="Capa_7">
	<path class="st0" d="M17.1,36.8c0,0-7.8,20.7,10.1,22.4s-1.7-29.5-1.7-29.5L17.1,36.8L17.1,36.8z"/>
</g>
<g id="Silla">
	<path class="st1" d="M133.8,131c0,0-0.2-43.4,0-57.7S114.1,58,114.1,58H64.5v73L133.8,131L133.8,131z"/>
	<g id="Capa_8">
		<path class="st2" d="M131.6,65.5c0,0-3.4,0-3.4,3.3c0,1.6,1,14.3,1.7,28.7c0.7,15.9-0.1,33.2-0.1,33.2l4.4-0.2L134,70.7
			C134,70.7,132.3,65.5,131.6,65.5L131.6,65.5z"/>
	</g>
	<path class="st2" d="M103.3,58.2c3.4,5.5,0.7,13.9-2.4,19.3c-3.8,6.6-12.2,9.9-20.2,7.7c0,0,11.9-0.7,21.9,5.2
		c7.5,4.4,20.1,9.1,20.6,16.5c1.2,17.3,0.9,24.8,0.9,24.8l-51.8-0.8V58.4L103.3,58.2L103.3,58.2z"/>
	<path class="st3" d="M133.8,131c0,0-0.2-43.4,0-57.7S114.1,58,114.1,58H64.5v73L133.8,131L133.8,131z"/>
	<path class="st3" d="M92.3,66.2H116c0,0,8.8,0.6,10,12.7s0,52,0,52"/>
	<path class="st3" d="M115.6,66.2c0,0,0.8-7.4,7.5-6.2"/>
	<polyline class="st3" points="133.7,99.1 126.5,100.6 106.1,100.3 	"/>
	<polyline class="st3" points="133.7,116.1 126.3,117 116.8,117 	"/>
</g>
<g id="Capa_6">
	<path class="st4" d="M4.6,131.4c0,0,2.6-25.3,43.9-26.5s57.6,3.2,57.6,3.2s14.2,5.4,14.3,22.7C114.8,130.9,4.6,131.4,4.6,131.4
		L4.6,131.4z"/>
	<path class="st5" d="M90.9,108.6c0,0,16-2.7,17-2.6s3.8,0.5,3.6,2.7s-1,2.2-1,2.2h-3.2c0,0-11.4,10-9.9,19.8
		c-12.6,0.5-15.1,0.5-15.1,0.5s0.9-10.2,1.8-10.9C84.9,119.7,90.9,108.6,90.9,108.6L90.9,108.6z"/>
	<path class="st6" d="M99.6,111.6c0.6-0.1,10.4-1.3,11-1.5c1-0.3-0.1-3.2-0.5-3.2c-2.9-0.2-10.8,0.8-13.7,1.1
		c-1.5,0.2-3,0.4-4.4,0.8c-0.8,0.2-3.9,5.5-3.9,5.5S98.6,111.7,99.6,111.6L99.6,111.6z"/>
	<path class="st3" d="M90.9,108.7c0,0,16-2.7,17-2.6s3.8,0.5,3.6,2.7s-1,2.2-1,2.2h-3.2c0,0-11.4,10-9.9,19.8
		c-12.6,0.5-15.1,0.5-15.1,0.5s0.9-10.2,1.8-10.9C84.9,119.8,90.9,108.7,90.9,108.7L90.9,108.7z"/>
	<path class="st3" d="M108.6,105.8c0,0-6.7,5.5-11.3,12.7s-3.7,12-3.7,12"/>
	<path class="st7" d="M20.9,110.6c0,0-7,13.1-4.6,20.2c7.5-0.4,12.7,0,12.7,0s0.1-13.9,1.5-15.6c-0.8-3.3-1.6-8.4-1.6-8.4
		S24.4,105.9,20.9,110.6z"/>
	<path class="st6" d="M30,115c-0.1,1.7-2,14-1.4,15.6c-1.8-0.2-2.4-0.2-4.2-0.1c-0.1,0-0.7-7.2,0.2-12.2c0.8-3.9,3-5.9,4.1-7
		C28.9,111.8,30.1,114.3,30,115L30,115z"/>
	<path class="st3" d="M20.9,110.6c0,0-7,13.1-4.6,20.2c7.5-0.4,12.7,0,12.7,0s0.1-13.9,1.5-15.6c-0.8-3.3-1.6-8.4-1.6-8.4
		S24.4,105.9,20.9,110.6z"/>
	<path class="st3" d="M24.5,131.3c0,0-1.2-16.2,4.8-20.2"/>
	<path class="st8" d="M69,130.9l21.3-22.7l17.6-2c0,0,0.2-7.6-7.2-7.6c0,0-4.4-10.5-30.8-9.2s-37,9.2-37,9.2s-13.4,8.7,9.1,33.6
		L69,130.9L69,130.9z"/>
	<path class="st9" d="M36.8,103.2c0,0,15.6-20.1,52.8-5.9c-4.4,4.3-8.6,6.1-12.8,10.6c-6.3,6.8-10.3,14.5-10.3,14.5l-20.9,3.5
		L36.8,103.2L36.8,103.2z"/>
	<path class="st1" d="M38.6,106.9c0,0,4.5-11,25.9-9.9s19.2,4.4,19.2,4.4l6.3-3.9c0,0-29.9,21.7-29.6,33.1l-12.2,0.7
		c0,0-12.7-26.1-11.4-27.4C38.1,107.5,38.6,106.9,38.6,106.9L38.6,106.9z"/>
	<path class="st10" d="M39.9,112.4c1.9-1.9,13.2-6.8,18.1-7.3c8.7-0.9,20,0.9,21,0.6c1.6-0.5,5.2-4.2,5.1-4.5
		c-0.2-0.5-2.9-4.6-26.8-3.6c-15.3,1.4-20,9.3-19.9,9.9C37.7,108.7,39.4,111.3,39.9,112.4z"/>
	<path class="st8" d="M43.6,119.8c0,0-1-21.9,37.6-15.9C72,112,61,131.2,61,131.2H48.2L43.6,119.8L43.6,119.8z"/>
	<ellipse class="st8" cx="58.3" cy="114.4" rx="12.5" ry="6.9"/>
	<polygon class="st11" points="93.3,119.8 85.2,118.8 83.9,120.7 82.2,131.4 93.3,130.9 93.3,126.7 94.8,122.8 	"/>
	<polygon class="st11" points="24.9,129.9 24.5,123.9 24.8,121.2 24.5,120.2 17.1,119.7 15.5,126.3 15.8,130.2 	"/>
	<path class="st11" d="M90.9,123.4c0,0-1.2,3.2-0.9,7.2"/>
	<path class="st11" d="M21.7,122.9c0,0-0.8,5.8,0,6.8"/>
	<path class="st8" d="M90.6,103.8c0,0,5-5,10-5.3"/>
	<path class="st8" d="M46.9,93.6c0,0,1,3.2,1.6,7.5c0.5,3.5,0.8,7.7,0.2,11.6c1.9,4.4,18.1,10,29.1-5.6c-2.3-6.6-4.4-15.5-1-25.7
		S46.9,93.6,46.9,93.6z"/>
</g>
<g id="Cabeza">
	<polygon class="st12" points="66.1,96.3 49.3,103 46.7,92.6 	"/>
	<path class="st8" d="M27.9,30.6c0,0-18.5,69,22.3,68.4c18.3-0.7,26-5,31.9-24.9c0,0,9.6-0.2,11.2-9.2s-1.3-10.9-9.7-8.6
		c4.9-11.6,6.8-39.2-19.6-43S27.9,30.6,27.9,30.6L27.9,30.6z"/>
	<circle class="st13" cx="34.2" cy="59.8" r="11.7"/>
	<path class="st13" d="M75.4,59.8c0,6.5-5.2,11.7-11.7,11.7s-11.7-5.2-11.7-11.7s5.2-11.7,11.7-11.7c5.3,0,9.7,3.5,11.2,8.2
		c0,0.1,0.1,0.2,0.1,0.4C75.2,57.7,75.4,58.7,75.4,59.8L75.4,59.8z"/>
	<circle class="st14" cx="36.5" cy="58.8" r="3.5"/>
	<circle class="st14" cx="65.8" cy="58.8" r="3.5"/>
	<path class="st3" d="M46.2,61c1.7,0.3-7.5,14,2,12.9"/>
	<path class="st3" d="M43.1,80c0,0,5.6,4.8,10.2,0"/>
	<path class="st13" d="M45.1,56c0,0,3-4.5,7.3,0"/>
	<g>
		<path class="st5" d="M91.2,55.8c1.5,1,2,9.5,0.5,11.6c-3,4.4-8.2,7.1-9.9,6.5c-2.2,11.1,4.4,7.2,10.1,1c2.9-3.2,5.7-7.1,6.8-9.7
			c2.6-6,2.3-12.9,1.2-19.3c-0.5-2.7-1.4-5.8-3.8-6.8c4.2,2.4,9,4.8,13.7,3.6c-1.7-0.1-3.2-1.4-4-3s-1.1-3.4-1.4-5.1
			c-0.9-4.3-2.6-8.5-5.4-11.6s-7.1-5.2-11.3-4.7c2-5.1,0.5-11.4-3.5-15c0.4,3.3,0.4,6.7,0,10.1c-3.5-4.2-8.4-6.9-13.3-9.2
			c-3.9-1.9-8.1-3.6-12.4-3.6c-5.2,0-10.1,2.5-15.2,3.9C36.9,6,30.2,6,24.9,9.6c-4,2.7-6.7,7.3-8.2,12.1s-1.9,9.8-2.4,14.8
			c2.5-2.5,4.7-5.3,6.6-8.2c-4.3,7.9-11.6,14-20,16.6c5.5,5.7,15.2,8.3,21.8,4.2C28.7,45.4,40,33.3,40,33.3s-8.6,10.5-13.3,14.2
			c7.5,2.8,20.9-7.5,20.9-7.5s-3.1,6.7-6.1,8.8c9.8-0.9,18.9-8,22.4-17.6c-0.3-2.2,2.8,2.3-3.5,8.9S77,31.9,79.4,29.6
			c-1.1,3.4-7.1,68.3,3.3,33.7c0.2-0.8,1.3-5.5,1.7-7.1c0-0.1,0.1-0.2,0.1-0.3C84.5,55.9,89.5,54.6,91.2,55.8L91.2,55.8z"/>
		<path class="st15" d="M61.7,38.7c-0.1,0.1-1.9,2.8-2.2,2.9s5.6-2.3,5.6-2.3l14.5-9.9C79.6,29.4,61.4,41.1,61.7,38.7"/>
		<path class="st15" d="M21.5,42c6.7-3,11.9-4.9,17.9-9.2c-2.5,5.9-5.9,8.5-11.2,12.1c3.7-0.2,7.5-0.5,11.1-1.6s8.2-3.4,10.5-6.3
			c-2.1,4-5.3,8.6-7.6,11.3c7.6-3.2,10.7-5,21.2-17.2c0.6,2.2-5.3,15.4-22.2,18.2c2.2-2.2,4.2-4.4,5.2-7.3C33.1,49.3,33,47,26,47.2
			l1.7-1c-4,1.9-6.7,4.1-11.1,4.8c-1.9,0.3-5.6-0.9-7.5-1.3c-1.6-0.4-3.1-1.2-4.5-2.1C3.4,46.9,2,46.3,1,45.4c0.4-0.2,1.1,0,1.6,0.1
			c0.7,0.1,1.4,0.1,2.1,0.2c1.4,0,2.8,0,4.2-0.1c2.8-0.3,5.6-0.9,8.3-1.8C18.6,43.2,20,42.6,21.5,42L21.5,42z"/>
		<path class="st3" d="M91.1,55.9c1.5,1,2,9.4,0.5,11.6c-3,4.4-8.2,7.1-9.9,6.5c-2.2,11.1,4.4,7.2,10.1,1c2.9-3.2,5.7-7.1,6.8-9.7
			c2.6-6,2.3-12.9,1.2-19.3c-0.5-2.7-1.4-5.8-3.8-6.8c4.2,2.4,9,4.8,13.7,3.6c-1.7-0.1-3.2-1.4-4-3s-1.1-3.4-1.4-5.1
			c-0.9-4.3-2.6-8.5-5.4-11.6s-7.1-5.2-11.3-4.7c2-5.1,0.5-11.4-3.5-15c0.4,3.3,0.4,6.7,0,10.1c-3.5-4.2-8.4-6.9-13.3-9.2
			c-3.9-1.9-8.1-3.6-12.4-3.6c-5.2,0-10.1,2.5-15.2,3.9c-6.2,1.6-12.9,1.7-18.2,5.2c-4,2.7-6.7,7.3-8.2,12.1s-1.9,9.8-2.4,14.8
			c2.5-2.5,4.7-5.3,6.6-8.2c-4.3,7.9-11.6,14-20,16.6c5.5,5.7,15.2,8.3,21.8,4.2C28.7,45.5,40,33.4,40,33.4s-8.6,10.5-13.3,14.2
			c7.5,2.8,20.9-7.5,20.9-7.5s-3.1,6.7-6.1,8.8c9.8-0.9,18.9-8,22.4-17.6c-0.3-2.2,2.8,2.3-3.5,8.9S76.9,32,79.3,29.7
			c-1.1,3.4-7.1,68.3,3.3,33.7c0.2-0.8,1.3-5.5,1.7-7.1c0-0.1,0.1-0.2,0.1-0.3C84.4,56,89.5,54.8,91.1,55.9L91.1,55.9z"/>
	</g>
	<line class="st16" x1="75.4" y1="56.9" x2="84.6" y2="56.1"/>
	<path class="st8" d="M85.3,60.7c0,0,4.8-3.9,4.7,2.6"/>
	<path class="st8" d="M87.4,61.6c0.1,0-4.5,8.8,0,5"/>
	<path class="st17" d="M59.2,46.8c-2.6,0,12.1,0,8.4,0"/>
	<path class="st17" d="M27.1,46.8c-1.3,0,13,0,14.7,0"/>
</g>
</svg>
